solid jepa_audio_draft
  facet normal 0.000000 0.000000 1005420.000000
    outer loop
      vertex 0.000000 0.000000 0.000000
      vertex 1289.000000 0.000000 0.000000
      vertex 1289.000000 780.000000 0.000000
    endloop
  endfacet
  facet normal 0.000000 0.000000 1005420.000000
    outer loop
      vertex 0.000000 0.000000 0.000000
      vertex 1289.000000 780.000000 0.000000
      vertex 0.000000 780.000000 0.000000
    endloop
  endfacet
  facet normal 0.000000 -233154.320000 1005420.000000
    outer loop
      vertex 0.000000 0.000000 351.120000
      vertex 1289.000000 0.000000 351.120000
      vertex 1289.000000 780.000000 532.000000
    endloop
  endfacet
  facet normal 0.000000 -233154.320000 1005420.000000
    outer loop
      vertex 0.000000 0.000000 351.120000
      vertex 1289.000000 780.000000 532.000000
      vertex 0.000000 780.000000 532.000000
    endloop
  endfacet
  facet normal 0.000000 -452593.680000 0.000000
    outer loop
      vertex 0.000000 0.000000 0.000000
      vertex 1289.000000 0.000000 0.000000
      vertex 1289.000000 0.000000 351.120000
    endloop
  endfacet
  facet normal 0.000000 -452593.680000 0.000000
    outer loop
      vertex 0.000000 0.000000 0.000000
      vertex 1289.000000 0.000000 351.120000
      vertex 0.000000 0.000000 351.120000
    endloop
  endfacet
  facet normal 414960.000000 0.000000 0.000000
    outer loop
      vertex 1289.000000 0.000000 0.000000
      vertex 1289.000000 780.000000 0.000000
      vertex 1289.000000 780.000000 532.000000
    endloop
  endfacet
  facet normal 273873.600000 0.000000 0.000000
    outer loop
      vertex 1289.000000 0.000000 0.000000
      vertex 1289.000000 780.000000 532.000000
      vertex 1289.000000 0.000000 351.120000
    endloop
  endfacet
  facet normal 0.000000 685748.000000 0.000000
    outer loop
      vertex 1289.000000 780.000000 0.000000
      vertex 0.000000 780.000000 0.000000
      vertex 0.000000 780.000000 532.000000
    endloop
  endfacet
  facet normal 0.000000 685748.000000 -0.000000
    outer loop
      vertex 1289.000000 780.000000 0.000000
      vertex 0.000000 780.000000 532.000000
      vertex 1289.000000 780.000000 532.000000
    endloop
  endfacet
  facet normal -273873.600000 0.000000 0.000000
    outer loop
      vertex 0.000000 780.000000 0.000000
      vertex 0.000000 0.000000 0.000000
      vertex 0.000000 0.000000 351.120000
    endloop
  endfacet
  facet normal -414960.000000 0.000000 0.000000
    outer loop
      vertex 0.000000 780.000000 0.000000
      vertex 0.000000 0.000000 351.120000
      vertex 0.000000 780.000000 532.000000
    endloop
  endfacet
endsolid jepa_audio_draft
